Coordinates
version=1
nRows=13
nColumns=34
inDegrees=yes

Units are S.I. units (second, meters, Newtons, ...)
If the header above contains a line with 'inDegrees', this indicates whether rotational values are in degrees (yes) or radians (no).

endheader
time	pelvis_tilt	pelvis_list	pelvis_rotation	pelvis_tx	pelvis_ty	pelvis_tz	hip_flexion_r	hip_adduction_r	hip_rotation_r	knee_angle_r	ankle_angle_r	subtalar_angle_r	mtp_angle_r	hip_flexion_l	hip_adduction_l	hip_rotation_l	knee_angle_l	ankle_angle_l	subtalar_angle_l	mtp_angle_l	lumbar_extension	lumbar_bending	lumbar_rotation	arm_flex_r	arm_add_r	arm_rot_r	elbow_flex_r	pro_sup_r	arm_flex_l	arm_add_l	arm_rot_l	elbow_flex_l	pro_sup_l
      6.85000000	     -8.06197517	     -2.51163159	      3.48042356	     -0.85429208	      1.11756388	     -0.04047743	     -0.26476507	     -3.28666353	    -13.07604738	      0.00000000	     10.27966366	     -0.93732382	      0.00000000	      3.12758385	     -5.78912505	     -4.27172925	      0.00000000	      8.09644204	     -1.92874110	      0.00000000	      8.64710707	      4.66665934	     -1.28935170	    -14.33687603	     -3.70279043	    -31.70743584	     32.05412594	    101.40530173	    155.64575004	    -35.06746236	     54.60071644	     52.40468741	     82.43890453
      6.86666670	     -8.19748148	     -2.46506402	      3.03050238	     -0.85417402	      1.11737775	     -0.03988447	     -0.03193708	     -3.34551403	    -12.39012819	      0.00000000	     10.35861433	     -0.72184728	      0.00000000	      3.14563742	     -5.75196555	     -4.65994646	      0.00000000	      8.26215246	     -2.05457659	      0.00000000	      8.67841704	      4.63131036	     -1.33535689	    -13.94443686	     -3.79615007	    -31.64452381	     32.14967606	    101.51145967	    155.43228987	    -34.93461887	     54.74998984	     52.65488195	     82.45185008
      6.88333330	     -8.23512106	     -2.44770278	      2.81462253	     -0.85406407	      1.11734425	     -0.03963800	      0.02877042	     -3.36497818	    -12.05930190	      0.00000000	     10.33544689	     -0.72648645	      0.00000000	      3.10046528	     -5.74396330	     -4.87367365	      0.00000000	      8.33102624	     -2.02771409	      0.00000000	      8.60860897	      4.59469013	     -1.36076057	    -13.58610931	     -3.82166411	    -31.57695451	     31.99393947	    101.64087857	    154.72823665	    -34.70513807	     55.11041800	     53.17561695	     82.48265410
      6.90000000	     -8.32919647	     -2.43470095	      2.65940998	     -0.85374661	      1.11717646	     -0.03932944	      0.13280319	     -3.37666470	    -11.96763228	      0.00000000	     10.35151245	     -0.73315185	      0.00000000	      3.12272646	     -5.73644986	     -4.89605275	      0.00000000	      8.39952975	     -2.00839543	      0.00000000	      8.45844738	      4.59011660	     -1.34100942	    -13.16788183	     -3.80280959	    -31.54532144	     31.93780935	    101.69154515	    154.35473692	    -34.60717132	     55.22652679	     53.44229201	     82.49163120
      6.91666670	     -8.32965081	     -2.35451903	      2.45427051	     -0.85325820	      1.11718197	     -0.03910399	      0.13278613	     -3.47524291	    -11.47995462	      0.00000000	     10.39482080	     -0.94377787	      0.00000000	      3.02825250	     -5.64869568	     -5.30996423	      0.00000000	      8.50588781	     -1.84579008	      0.00000000	      8.45021274	      4.50765731	     -1.33480045	    -12.31336847	     -3.91047587	    -31.56715581	     30.23321276	    102.07292372	    153.48825645	    -35.13292978	     54.63589375	     55.59908431	     82.44605062
      6.93333330	     -8.37721734	     -2.42438623	      2.42779890	     -0.85446048	      1.11694280	     -0.03938535	      0.19529227	     -3.41197176	    -11.35379435	      0.00000000	     10.16785136	     -1.12587556	      0.00000000	      3.04887292	     -5.72002562	     -5.25298710	      0.00000000	      8.68024185	     -1.84758069	      0.00000000	      8.46001580	      4.69141622	     -1.86937361	    -11.47939523	     -3.95272044	    -31.17011235	     29.68236959	    102.72814997	    152.94475658	    -35.99247535	     52.66720080	     57.18406482	     82.27416467
      6.95000000	     -8.56776655	     -2.38385852	      2.30467193	     -0.85899884	      1.11609836	     -0.04037029	      0.48155889	     -3.49690832	    -11.04917031	      0.00000000	     10.18709751	     -1.06672940	      0.00000000	      3.25463920	     -5.64242216	     -5.27661180	      0.00000000	      8.79460349	     -2.01904213	      0.00000000	      8.36258391	      4.50500366	     -1.99820251	    -10.79666060	     -3.75357507	    -30.96222759	     29.81445797	    102.87833020	    153.31219871	    -36.13823316	     51.67975636	     57.92484485	     82.20331491
      6.96666670	     -8.48440750	     -2.49098677	      2.46961524	     -0.86580943	      1.11593089	     -0.04246874	      0.54810119	     -3.42954357	    -10.85940297	      0.00000000	      9.97999641	     -1.72612212	      0.00000000	      3.33612178	     -5.69004708	     -4.81934371	      0.00000000	      8.58647252	     -2.37550288	      0.00000000	      7.89686444	      4.89944211	     -2.45907381	     -9.69190943	     -4.11195124	    -30.00215433	     29.63132835	    103.45581049	    152.14323468	    -37.76336508	     48.61433912	     61.24859261	     82.00048731
      6.98333330	     -8.72652345	     -2.42772026	      2.50076410	     -0.87016338	      1.11592172	     -0.04372704	      1.02472046	     -3.57139969	    -10.63801038	      0.00000000	      9.74619010	     -2.01643287	      0.00000000	      3.78007279	     -5.52526067	     -4.53853170	      0.00000000	      8.52320477	     -2.73873310	      0.00000000	      7.76097674	      4.90825676	     -2.18463059	     -9.16703108	     -4.43885051	    -29.01001603	     29.73584144	    104.08269788	    150.32219354	    -38.71056007	     46.08972929	     64.20227532	     81.92441276
      7.00000000	     -8.74374586	     -2.40017835	      2.53553491	     -0.87124986	      1.11697992	     -0.04396591	      1.25845130	     -3.65030976	    -10.39764112	      0.00000000	      9.66608996	     -2.15411357	      0.00000000	      3.99672076	     -5.43559629	     -4.29244897	      0.00000000	      8.39252745	     -2.87327633	      0.00000000	      7.28533605	      4.76291455	     -1.55529228	     -8.96967658	     -4.66815163	    -28.62484956	     29.89095683	    104.38910720	    148.65793435	    -39.36211820	     45.71595922	     66.90534736	     82.06269802
      7.01666670	     -8.69531410	     -2.35870658	      2.59505139	     -0.87072585	      1.11755669	     -0.04389104	      1.36086185	     -3.73451742	    -10.21816904	      0.00000000	      9.45974689	     -2.44799602	      0.00000000	      4.11829988	     -5.34344234	     -4.14064493	      0.00000000	      8.13834948	     -3.07022942	      0.00000000	      7.06693024	      4.73402086	     -1.21975193	     -9.01879889	     -4.80500748	    -28.34847510	     30.35092417	    104.71018047	    146.38859343	    -41.00042298	     46.11072125	     70.55588997	     82.44149286
      7.03333330	     -8.55376450	     -2.32221599	      2.66214710	     -0.87023870	      1.11709768	     -0.04388624	      1.29565912	     -3.79463906	    -10.07703254	      0.00000000	      9.24499034	     -2.73732758	      0.00000000	      4.10265333	     -5.27479828	     -3.92818784	      0.00000000	      7.91830333	     -3.30769681	      0.00000000	      6.75528506	      4.69143555	     -0.48053362	     -9.41785581	     -4.83851082	    -28.32637484	     30.69947415	    104.91559476	    144.51525097	    -42.84006525	     47.57905647	     74.37649481	     82.96855880
      7.05000000	     -8.35977680	     -2.28906540	      2.77119608	     -0.87014309	      1.11667164	     -0.04396663	      1.12080362	     -3.83185252	     -9.93670759	      0.00000000	      9.02040560	     -3.04915836	      0.00000000	      3.99711076	     -5.23099756	     -3.64668208	      0.00000000	      7.64534412	     -3.55948590	      0.00000000	      6.53358399	      4.65975030	     -0.00855498	     -9.73198415	     -4.66445198	    -28.36180665	     31.16105190	    105.06593675	    142.90858947	    -45.11290335	     49.29397729	     78.40773914	     83.62967932
